<svg width="170" height="38" viewBox="0 0 170 38" fill="none" xmlns="http://www.w3.org/2000/svg">
<path fill-rule="evenodd" clip-rule="evenodd" d="M23.8872 11.291C24.5119 9.73759 24.63 9.0208 24.6308 8.96991C24.631 8.95614 24.6364 8.9242 24.6446 8.8755C24.6999 8.54557 24.8844 7.44649 24.4731 6.01835C24.2684 4.98294 23.6624 3.95512 22.6928 2.86301C21.889 1.95753 20.8868 1.30795 19.8462 0.857423C18.5918 0.178013 16.762 -0.0167531 15.0536 0.00110561V8.49668C16.9609 8.806 18.6298 9.70045 20.0112 10.7716C20.8587 11.4222 21.5329 12.1295 22.0844 12.8407C23.2186 14.3647 24.0621 15.7909 24.5407 16.6993L23.6844 13.905C23.6177 13.654 23.5093 13.0707 23.5913 12.305C23.6296 12.0075 23.7328 11.6747 23.8872 11.291Z" fill="#FCC862"/>
<path d="M15.0536 8.49668V0.00110561C13.5417 0.0714772 9.26607 0.697344 5.63407 4.07878C3.87913 5.71266 2.60153 7.76301 1.62592 9.78005C0.314208 12.6136 -0.0101068 15.7836 0.000404612 18.0052C0.255593 17.2929 0.95961 15.973 2.23134 14.6475C2.99188 13.7671 3.92013 12.8713 4.95803 12.0561C6.33702 10.9729 7.55675 10.2585 8.96921 9.66738C11.1221 8.52208 13.0792 8.10165 15.0536 8.49668Z" fill="#FCC862"/>
<path d="M20.0112 10.7716C18.6298 9.70045 16.9609 8.806 15.0536 8.49668C13.0792 8.10165 11.1221 8.52208 8.96921 9.66738C7.55675 10.2585 6.33702 10.9729 4.95803 12.0561C3.92013 12.8713 2.99188 13.7671 2.23134 14.6475C0.95961 15.973 0.255593 17.2929 0.000404612 18.0052C-0.00532004 18.6382 0.0488101 19.5865 0.21976 20.5291C0.394035 21.873 0.809075 23.4995 1.42009 25.0811C2.37907 27.5634 3.96077 30.0296 5.62601 31.6612C6.25061 32.3435 6.8736 32.9149 7.45938 33.3288C6.59325 32.3641 5.64888 30.4601 5.38658 27.8303C5.29957 26.6017 5.34447 25.2486 5.57791 23.7966C5.68862 23.2601 5.8355 22.7112 6.02279 22.1516C6.58388 20.3455 7.55341 18.5042 9.05935 16.6757C9.85545 15.7005 11.2189 14.4346 12.9578 13.4708C14.5112 12.6542 16.3158 12.0467 18.231 12.0323C18.9793 12.0263 19.6826 12.0816 20.3267 12.2106C20.978 12.341 21.5688 12.5468 22.0844 12.8407C21.5329 12.1295 20.8587 11.4222 20.0112 10.7716Z" fill="#FFEA9F"/>
<path d="M5.38658 27.8303C5.64888 30.4601 6.59325 32.3641 7.45938 33.3288C8.93165 34.6583 12.8857 37.2543 16.9239 37.0019C16.3157 36.6885 15.6098 36.2112 14.8958 35.5694C13.3595 34.078 11.7142 31.7862 10.8257 27.5824C10.8068 27.2977 10.7484 26.9224 10.6818 26.5055C10.5528 24.6536 10.6981 22.6888 11.3579 20.8446C11.5675 19.9247 12.6447 17.3195 15.0986 14.9624C16.3277 13.797 18.0221 12.7655 20.3267 12.2106C19.6826 12.0816 18.9793 12.0263 18.231 12.0323C16.3158 12.0467 14.5112 12.6542 12.9578 13.4708C11.2189 14.4346 9.85545 15.7005 9.05935 16.6757C7.55341 18.5042 6.58388 20.3455 6.02279 22.1516C5.8355 22.7112 5.68862 23.2601 5.57791 23.7966C5.34447 25.2486 5.29957 26.6017 5.38658 27.8303Z" fill="#FFEA9F"/>
<ellipse cx="20.9799" cy="7.4584" rx="1.01406" ry="1.01406" fill="#102D35"/>
<path fill-rule="evenodd" clip-rule="evenodd" d="M25.1489 15.301C25.0949 15.4272 24.9762 15.5339 24.9236 15.5714C24.9734 15.7852 25.0442 15.9421 25.1147 16.0672C25.1498 16.4271 25.1274 16.7351 25.1129 16.9338C25.1086 16.9933 25.105 17.0429 25.1039 17.0813C25.4315 17.3539 25.6834 18.0317 25.8813 18.8164C26.174 20.0686 26.2536 21.5088 26.2531 22.3769L34.8388 21.0023C34.7555 20.402 34.3883 19.518 34.1574 18.9619C34.0762 18.7664 34.0118 18.6114 33.9825 18.5235C33.8699 18.1855 33.1938 17.1714 32.8558 16.6756C32.7247 16.4833 32.5019 16.2435 32.2534 15.9996C31.9141 15.6188 31.4722 15.225 31.1432 14.9855C30.7715 14.7151 29.6784 14.1517 29.1601 13.9264C28.8972 13.8438 28.2227 13.6785 27.6277 13.6785C26.9597 13.6785 26.7099 13.7876 26.5844 13.8425C26.5702 13.8487 26.5575 13.8542 26.5461 13.8588C26.4334 13.9039 25.87 14.0841 25.487 14.0841C25.1039 14.0841 24.6757 13.9489 24.518 13.7687C24.3918 13.6244 24.24 13.5884 24.1799 13.5884C24.1439 13.6425 24.3452 13.9564 24.4504 14.1067C24.6306 14.317 24.9957 14.7467 25.0137 14.7827C25.0156 14.7865 25.0186 14.7921 25.0224 14.7994C25.0647 14.8794 25.2109 15.1565 25.1489 15.301Z" fill="#FFEA9F"/>
<path d="M34.8388 21.0023L26.2531 22.3769C26.2727 22.8379 26.2917 23.3798 26.4109 23.8867C26.5709 24.6522 26.7785 25.4567 27.0869 26.0726C27.6741 27.2451 28.1146 27.6985 28.2587 27.8528C28.5769 28.222 29.5457 29.0239 30.7601 29.6781C31.9932 30.3425 32.6079 30.7072 32.7882 30.7598C33.0991 30.3091 33.6405 29.605 33.9149 29.0922C34.1655 28.625 34.3363 28.1215 34.5008 27.6726C35.0054 26.2957 35.2035 24.7858 35.1769 24.1571C35.2069 23.759 35.1633 22.5707 34.8388 21.0023Z" fill="#FFEA9F"/>
<path d="M35.1769 24.1571C35.2035 24.7858 35.0054 26.2957 34.5008 27.6726C34.3363 28.1215 34.1655 28.625 33.9149 29.0922C33.6405 29.605 33.0991 30.3091 32.7882 30.7598L38.8049 33.8472L43.9429 36.4836C43.9128 36.4461 43.8392 36.2808 43.7851 35.9202C43.7175 35.4696 43.5147 33.4189 43.3119 32.6978C43.1091 31.9767 42.2302 29.6331 40.9232 28.0106C39.6162 26.3881 37.1225 24.5065 36.4388 23.5938C36.1354 23.1888 35.7801 22.6915 35.4473 22.1966C35.1723 21.7039 34.9301 21.2645 34.8388 21.0023C35.1633 22.5707 35.2069 23.759 35.1769 24.1571Z" fill="#FFEA9F"/>
<path d="M26.2531 22.3769C26.2536 21.5088 26.174 20.0686 25.8813 18.8164C25.6834 18.0317 25.4315 17.3539 25.1039 17.0813C25.0009 17.6011 24.6372 18.7698 24.0673 19.6051C23.7151 20.1213 22.9487 21.2304 22.3628 22.7375C21.6327 24.4823 21.2827 26.6593 21.9265 29.0922C22.3208 30.5825 22.9508 31.7746 23.6391 32.6965C24.7046 34.1062 25.8045 34.9499 26.4109 35.2667C27.0727 35.68 28.2937 36.3181 29.8361 36.5963C30.774 36.7267 31.8443 36.7934 32.9234 36.6639C36.0179 36.2924 38.1206 34.5471 38.8049 33.8472L32.7882 30.7598C32.6079 30.7072 31.9932 30.3425 30.7601 29.6781C29.5457 29.0239 28.5769 28.222 28.2587 27.8528C28.1146 27.6985 27.6741 27.2451 27.0869 26.0726C26.7785 25.4567 26.5709 24.6522 26.4109 23.8867C26.2917 23.3798 26.2727 22.8379 26.2531 22.3769Z" fill="#FCC862"/>
<ellipse cx="27.8307" cy="16.2921" rx="0.788714" ry="0.788714" fill="#102D35"/>
<path d="M166.806 26.2523C166.022 26.2523 165.416 26.019 164.986 25.5523C164.557 25.0856 164.342 24.4136 164.342 23.5363V14.6883C164.342 13.811 164.557 13.139 164.986 12.6723C165.416 12.2056 166.022 11.9723 166.806 11.9723C167.609 11.9723 168.225 12.2056 168.654 12.6723C169.102 13.139 169.326 13.811 169.326 14.6883V23.5363C169.326 24.4136 169.112 25.0856 168.682 25.5523C168.253 26.019 167.628 26.2523 166.806 26.2523ZM166.806 9.98429C165.929 9.98429 165.248 9.77896 164.762 9.36829C164.296 8.95762 164.062 8.36029 164.062 7.57629C164.062 6.81095 164.296 6.22296 164.762 5.81229C165.248 5.40162 165.929 5.19629 166.806 5.19629C167.721 5.19629 168.412 5.40162 168.878 5.81229C169.345 6.22296 169.578 6.81095 169.578 7.57629C169.578 8.36029 169.345 8.95762 168.878 9.36829C168.412 9.77896 167.721 9.98429 166.806 9.98429Z" fill="#EDB36F"/>
<path d="M138.797 26.252C138.013 26.252 137.406 26.0373 136.977 25.608C136.548 25.1787 136.333 24.5533 136.333 23.732V14.464C136.333 13.6613 136.538 13.0453 136.949 12.616C137.378 12.1867 137.985 11.972 138.769 11.972C139.553 11.972 140.15 12.1867 140.561 12.616C140.972 13.0453 141.177 13.6613 141.177 14.464V16.004L140.869 14.632C141.261 13.8107 141.84 13.1573 142.605 12.672C143.389 12.168 144.313 11.916 145.377 11.916C146.385 11.916 147.244 12.1587 147.953 12.644C148.681 13.1293 149.204 13.8667 149.521 14.856H149.129C149.558 13.9413 150.202 13.2227 151.061 12.7C151.92 12.1773 152.872 11.916 153.917 11.916C155 11.916 155.886 12.1307 156.577 12.56C157.268 12.9707 157.781 13.624 158.117 14.52C158.472 15.3973 158.649 16.508 158.649 17.852V23.732C158.649 24.5533 158.425 25.1787 157.977 25.608C157.548 26.0373 156.932 26.252 156.129 26.252C155.345 26.252 154.738 26.0373 154.309 25.608C153.88 25.1787 153.665 24.5533 153.665 23.732V17.992C153.665 17.1893 153.544 16.6107 153.301 16.256C153.058 15.9013 152.657 15.724 152.097 15.724C151.406 15.724 150.874 15.9667 150.501 16.452C150.146 16.9373 149.969 17.628 149.969 18.524V23.732C149.969 24.5533 149.754 25.1787 149.325 25.608C148.896 26.0373 148.28 26.252 147.477 26.252C146.674 26.252 146.058 26.0373 145.629 25.608C145.2 25.1787 144.985 24.5533 144.985 23.732V17.992C144.985 17.1893 144.864 16.6107 144.621 16.256C144.378 15.9013 143.977 15.724 143.417 15.724C142.745 15.724 142.222 15.9667 141.849 16.452C141.494 16.9373 141.317 17.628 141.317 18.524V23.732C141.317 25.412 140.477 26.252 138.797 26.252Z" fill="#EDB36F"/>
<path d="M121.812 26.3077C120.618 26.3077 119.638 26.093 118.872 25.6637C118.107 25.2157 117.528 24.553 117.136 23.6757C116.763 22.7983 116.576 21.6877 116.576 20.3437V14.4637C116.576 13.6423 116.791 13.0263 117.22 12.6157C117.65 12.1863 118.266 11.9717 119.068 11.9717C119.871 11.9717 120.487 12.1863 120.916 12.6157C121.346 13.0263 121.56 13.6423 121.56 14.4637V20.4837C121.56 21.1557 121.7 21.6597 121.98 21.9957C122.26 22.3317 122.699 22.4997 123.296 22.4997C123.968 22.4997 124.519 22.257 124.948 21.7717C125.378 21.2863 125.592 20.6423 125.592 19.8397V14.4637C125.592 13.6423 125.807 13.0263 126.236 12.6157C126.666 12.1863 127.282 11.9717 128.084 11.9717C128.887 11.9717 129.503 12.1863 129.932 12.6157C130.362 13.0263 130.576 13.6423 130.576 14.4637V23.7317C130.576 25.4117 129.774 26.2517 128.168 26.2517C127.384 26.2517 126.778 26.037 126.348 25.6077C125.919 25.1783 125.704 24.553 125.704 23.7317V22.1077L126.152 23.4797C125.742 24.3943 125.163 25.0943 124.416 25.5797C123.688 26.065 122.82 26.3077 121.812 26.3077Z" fill="#EDB36F"/>
<path d="M103.165 31.348C102.139 31.348 101.177 31.2733 100.281 31.124C99.3855 30.9933 98.6108 30.7973 97.9575 30.536C97.4161 30.3493 97.0335 30.0787 96.8095 29.724C96.5855 29.3694 96.4828 28.996 96.5015 28.604C96.5201 28.212 96.6228 27.8574 96.8095 27.54C97.0148 27.2227 97.2855 26.9893 97.6215 26.84C97.9575 26.7093 98.3308 26.7187 98.7415 26.868C99.5628 27.204 100.309 27.4187 100.981 27.512C101.653 27.624 102.223 27.68 102.689 27.68C103.828 27.68 104.677 27.4373 105.237 26.952C105.816 26.4853 106.105 25.748 106.105 24.74V22.976H106.329C106.049 23.76 105.48 24.404 104.621 24.908C103.763 25.3933 102.829 25.636 101.821 25.636C100.589 25.636 99.5161 25.356 98.6015 24.796C97.6868 24.2173 96.9681 23.4147 96.4455 22.388C95.9415 21.3613 95.6895 20.1573 95.6895 18.776C95.6895 17.7307 95.8388 16.788 96.1375 15.948C96.4361 15.108 96.8468 14.3893 97.3695 13.792C97.9108 13.1947 98.5548 12.7373 99.3015 12.42C100.067 12.084 100.907 11.916 101.821 11.916C102.867 11.916 103.8 12.1587 104.621 12.644C105.461 13.1293 106.021 13.764 106.301 14.548L106.021 15.696V14.464C106.021 13.6613 106.236 13.0453 106.665 12.616C107.113 12.1867 107.729 11.972 108.513 11.972C109.297 11.972 109.895 12.1867 110.305 12.616C110.735 13.0453 110.949 13.6613 110.949 14.464V24.152C110.949 26.5414 110.277 28.3333 108.933 29.528C107.589 30.7413 105.667 31.348 103.165 31.348ZM103.361 21.968C103.921 21.968 104.397 21.8467 104.789 21.604C105.181 21.3427 105.489 20.9787 105.713 20.512C105.937 20.0267 106.049 19.448 106.049 18.776C106.049 17.768 105.807 16.984 105.321 16.424C104.836 15.864 104.183 15.584 103.361 15.584C102.839 15.584 102.372 15.7147 101.961 15.976C101.551 16.2187 101.233 16.5827 101.009 17.068C100.804 17.5347 100.701 18.104 100.701 18.776C100.701 19.784 100.944 20.568 101.429 21.128C101.915 21.688 102.559 21.968 103.361 21.968Z" fill="#EDB36F"/>
<path d="M85.5054 26.308C83.8254 26.308 82.3694 26.0187 81.1374 25.44C79.9241 24.8427 78.9908 24.0027 78.3374 22.92C77.6841 21.8373 77.3574 20.5587 77.3574 19.084C77.3574 17.6653 77.6654 16.424 78.2814 15.36C78.9161 14.2773 79.7748 13.4373 80.8574 12.84C81.9588 12.224 83.2094 11.916 84.6094 11.916C85.6361 11.916 86.5694 12.084 87.4094 12.42C88.2494 12.7373 88.9681 13.2133 89.5654 13.848C90.1628 14.464 90.6108 15.2107 90.9094 16.088C91.2268 16.9653 91.3854 17.9453 91.3854 19.028C91.3854 19.4013 91.2828 19.6813 91.0774 19.868C90.8721 20.036 90.5454 20.12 90.0974 20.12H81.5294V17.768H87.7454L87.2974 18.132C87.2974 17.4413 87.2041 16.8813 87.0174 16.452C86.8308 16.0227 86.5508 15.696 86.1774 15.472C85.8228 15.248 85.3748 15.136 84.8334 15.136C84.2548 15.136 83.7508 15.276 83.3214 15.556C82.9108 15.8173 82.5934 16.2093 82.3694 16.732C82.1454 17.2547 82.0334 17.908 82.0334 18.692V18.944C82.0334 20.2693 82.3228 21.2213 82.9014 21.8C83.4988 22.36 84.4134 22.64 85.6454 22.64C86.0561 22.64 86.5228 22.5933 87.0454 22.5C87.5868 22.388 88.1001 22.2387 88.5854 22.052C89.0708 21.8653 89.4908 21.8373 89.8454 21.968C90.2001 22.08 90.4708 22.2853 90.6574 22.584C90.8628 22.864 90.9748 23.1907 90.9934 23.564C91.0121 23.9187 90.9281 24.2733 90.7414 24.628C90.5548 24.964 90.2468 25.2254 89.8174 25.412C89.1641 25.7107 88.4641 25.9347 87.7174 26.084C86.9894 26.2333 86.2521 26.308 85.5054 26.308Z" fill="#EDB36F"/>
<path d="M53.1717 26.2518C52.425 26.2518 51.8463 26.0465 51.4357 25.6358C51.0437 25.2251 50.8477 24.6465 50.8477 23.8998V8.35981C50.8477 7.59448 51.0623 7.01581 51.4917 6.62381C51.921 6.21315 52.5277 6.00781 53.3117 6.00781C53.965 6.00781 54.4783 6.13848 54.8517 6.39981C55.2437 6.64248 55.5983 7.05315 55.9157 7.63181L61.9357 18.4398H60.9557L66.9477 7.63181C67.2837 7.05315 67.6383 6.64248 68.0117 6.39981C68.4037 6.13848 68.9263 6.00781 69.5797 6.00781C70.3263 6.00781 70.8957 6.21315 71.2877 6.62381C71.6983 7.01581 71.9037 7.59448 71.9037 8.35981V23.8998C71.9037 24.6465 71.7077 25.2251 71.3157 25.6358C70.9237 26.0465 70.345 26.2518 69.5797 26.2518C68.833 26.2518 68.2543 26.0465 67.8437 25.6358C67.4517 25.2251 67.2557 24.6465 67.2557 23.8998V14.2678H67.8437L63.3357 22.1078C63.0743 22.5185 62.7943 22.8265 62.4957 23.0318C62.2157 23.2371 61.833 23.3398 61.3477 23.3398C60.881 23.3398 60.4983 23.2371 60.1997 23.0318C59.901 22.8265 59.6303 22.5185 59.3877 22.1078L54.8517 14.2398H55.4957V23.8998C55.4957 24.6465 55.2997 25.2251 54.9077 25.6358C54.5157 26.0465 53.937 26.2518 53.1717 26.2518Z" fill="#EDB36F"/>
</svg>
